# xmcd
#
# Track frame offsets:
#	150
#	10434
#	25398
#	35884
#	48708
#	63333
#	70723
#	89216
#	96620
#	106919
#	121988
#	131498
#	141305
#	156086
#	172147
#	177640
#	192555
#	205657
#	214445
#	228623
#	241285
#	250473
#	268191
#	278382
#	287201
#	304434
#	311646
#	323318
#	335576
#	346461
#
# Disc length: 4768 seconds
#
# Revision: 1
# Processed by: cddbd v1.4PL0 Copyright (c) Steve Scherf et al.
# Submitted via: audiograbber 1.80
#
DISCID=e8129e1e
DTITLE=sons of the pioneers - memories of the range, the standard transcription
DTITLE=s disc 2
DYEAR=1900
DGENRE=
TTITLE0=miss lucy long 1935
TTITLE1=hard times come again no more 1935
TTITLE2=yankee doodle 1935
TTITLE3=all god's chillun got wings 1935
TTITLE4=t for texas 1935
TTITLE5=harvester 1935
TTITLE6=custer's last battle 1935
TTITLE7=goodbye my lover goodbye 1935
TTITLE8=covered wagon roll me on (westward ho) 1935
TTITLE9=beulah land (dwelling in b. l.) 1935
TTITLE10=i follow the stream 1935
TTITLE11=darling nellie grey 1935
TTITLE12=chicken 1935
TTITLE13=going home 1935
TTITLE14=blues in e 1935
TTITLE15=old rover 1935
TTITLE16=beautiful nell 1935
TTITLE17=main street 1935
TTITLE18=drifting sands (sands of the desert) 1935
TTITLE19=and i still do 1935
TTITLE20=climb up chillun' 1935
TTITLE21=falling leaf 1935
TTITLE22=i wish i'd stayed in the wagon yard 1935
TTITLE23=some folks 1935
TTITLE24=billy the kid 1935
TTITLE25=we are climbing jacob's ladder 1935
TTITLE26=dixie 1935
TTITLE27=wind 1935
TTITLE28=old paint (goodbye old paint) 1935
TTITLE29=tenting tonight (tenting tonight on the old camp ground) 1935
EXTD=
EXTT0=
EXTT1=
EXTT2=
EXTT3=
EXTT4=
EXTT5=
EXTT6=
EXTT7=
EXTT8=
EXTT9=
EXTT10=
EXTT11=
EXTT12=
EXTT13=
EXTT14=
EXTT15=
EXTT16=
EXTT17=
EXTT18=
EXTT19=
EXTT20=
EXTT21=
EXTT22=
EXTT23=
EXTT24=
EXTT25=
EXTT26=
EXTT27=
EXTT28=
EXTT29=
PLAYORDER=
